<svg width="24" height="24" viewBox="0 0 24 24" fill="none" xmlns="http://www.w3.org/2000/svg">
<path d="M12 0C5.38352 0 0 5.38352 0 12C0 18.6165 5.38352 24 12 24C18.6165 24 24 18.6165 24 12C24 5.38352 18.6165 0 12 0ZM18.7069 8.84214L11.0378 16.4513C10.5867 16.9024 9.8648 16.9324 9.38372 16.4813L5.32361 12.7818C4.84253 12.3307 4.81257 11.5788 5.23315 11.0978C5.68427 10.6167 6.43614 10.5867 6.91723 11.0378L10.135 13.9854L16.9923 7.1281C17.4734 6.64702 18.2253 6.64702 18.7063 7.1281C19.1874 7.60918 19.1874 8.36106 18.7063 8.84214H18.7069Z" fill="#00DE5A"/>
</svg>
